<svg viewBox="900 925 200.00000000000017 150.00000000000014" fill="none" xmlns="http://www.w3.org/2000/svg" xmlns:xlink="http://www.w3.org/1999/xlink" overflow="visible" width="200.00000000000017px" height="150.00000000000014px"><g id="Master/New Stickers/Speech Bubble Red"><g id="Group 12"><g id="Group 3"><path id="Fill 1" fill-rule="evenodd" clip-rule="evenodd" d="M1098.47 1066.88L1083 1038.27C1086 1034.02 1087.77 1028.86 1087.77 1023.29V961.069C1087.77 946.731 1076.04 935 1061.7 935H928.07C913.732 935 902 946.731 902 961.069V1023.29C902 1037.63 913.732 1049.36 928.07 1049.36H1060.3L1098.47 1066.88Z" fill="#FF0057"/></g><path id="Fill 4" fill-rule="evenodd" clip-rule="evenodd" d="M942.65 962.821H1028.06C1030.42 962.821 1032.33 964.733 1032.33 967.092C1032.33 969.45 1030.42 971.362 1028.06 971.362H942.65C940.291 971.362 938.379 969.45 938.379 967.092C938.379 964.733 940.291 962.821 942.65 962.821" fill="white"/><path id="Fill 6" fill-rule="evenodd" clip-rule="evenodd" d="M942.374 985.732H1012.27C1014.48 985.732 1016.27 987.52 1016.27 989.726C1016.27 991.932 1014.48 993.721 1012.27 993.721H942.374C940.168 993.721 938.38 991.932 938.38 989.726C938.38 987.52 940.168 985.732 942.374 985.732" fill="white"/><path id="Fill 8" fill-rule="evenodd" clip-rule="evenodd" d="M942.374 1008.37H986.977C989.183 1008.37 990.971 1010.15 990.971 1012.36C990.971 1014.57 989.183 1016.36 986.977 1016.36H942.374C940.168 1016.36 938.38 1014.57 938.38 1012.36C938.38 1010.15 940.168 1008.37 942.374 1008.37" fill="white"/><path id="Fill 10" fill-rule="evenodd" clip-rule="evenodd" d="M1000.57 1008.37H1030.52C1032 1008.37 1033.2 1010.15 1033.2 1012.36C1033.2 1014.57 1032 1016.36 1030.52 1016.36H1000.57C999.092 1016.36 997.891 1014.57 997.891 1012.36C997.891 1010.15 999.092 1008.37 1000.57 1008.37" fill="white"/></g></g></svg>