<svg viewBox="571.6625000000001 188.66666666666663 433.6750000000004 471.66666666666686" fill="none" xmlns="http://www.w3.org/2000/svg" xmlns:xlink="http://www.w3.org/1999/xlink" overflow="visible" width="433.6750000000004px" height="471.66666666666686px"><g id="Master/New Stickers/Microphone"><g id="Master/Stickers/Microphone"><g id="Group"><rect id="Rectangle" x="700.117" y="189" width="176" height="364" rx="88" fill="#B6CCFC"/><path id="Rectangle Copy 3" fill-rule="evenodd" clip-rule="evenodd" d="M876.117 277C876.117 228.399 836.718 189 788.117 189C739.516 189 700.117 228.399 700.117 277V465C700.117 513.601 739.516 553 788.117 553C836.718 553 876.117 513.601 876.117 465V277ZM720.126 275.875C720.727 238.839 750.937 209 788.117 209C825.673 209 856.117 239.445 856.117 277V465L856.108 466.125C855.508 503.161 825.297 533 788.117 533C750.562 533 720.117 502.555 720.117 465V277L720.126 275.875Z" fill="#066952"/><path id="Combined Shape" fill-rule="evenodd" clip-rule="evenodd" d="M688.117 274C685.908 274 684.117 275.791 684.117 278V464C684.117 466.209 685.908 468 688.117 468H712.117C714.326 468 716.117 466.209 716.117 464V431H727.617C734.521 431 740.117 425.404 740.117 418.5C740.117 411.596 734.521 406 727.617 406H716.117V384H727.617C734.521 384 740.117 378.404 740.117 371.5C740.117 364.596 734.521 359 727.617 359H716.117V335H727.617C734.521 335 740.117 329.404 740.117 322.5C740.117 315.596 734.521 310 727.617 310H716.117V278C716.117 275.791 714.326 274 712.117 274H688.117Z" fill="#066952"/><path id="Combined Shape_2" fill-rule="evenodd" clip-rule="evenodd" d="M888.117 274C890.326 274 892.117 275.791 892.117 278V464C892.117 466.209 890.326 468 888.117 468H864.117C861.908 468 860.117 466.209 860.117 464V431H848.617C841.714 431 836.117 425.404 836.117 418.5C836.117 411.596 841.714 406 848.617 406H860.117V384H848.617C841.714 384 836.117 378.404 836.117 371.5C836.117 364.596 841.714 359 848.617 359H860.117V335H848.617C841.714 335 836.117 329.404 836.117 322.5C836.117 315.596 841.714 310 848.617 310H860.117V278C860.117 275.791 861.908 274 864.117 274H888.117Z" fill="#066952"/><path id="Path 25" d="M919.772 380C925.201 380 929.62 384.327 929.768 389.72L929.772 390L929.771 402.813L929.897 406.233C933.715 524.529 886.834 586.736 790.897 587.981L787.945 588C689.883 588 642.261 522.887 646.37 397.898L646.501 394.308L646.502 390C646.502 384.571 650.829 380.152 656.222 380.004L656.502 380C661.931 380 666.35 384.327 666.498 389.72L666.502 390V394.704L666.494 394.908C661.707 512.102 701.748 568 787.945 568C873.417 568 913.504 515.919 909.903 406.732L909.78 403.406L909.772 403.203V390C909.772 384.477 914.249 380 919.772 380Z" fill="#F52728"/><path id="Path 24" fill-rule="evenodd" clip-rule="evenodd" d="M576 660.5C576 660.5 660.779 586 787.369 586C913.959 586 1000.24 660.5 1000.24 660.5H576Z" fill="#F52728"/></g></g></g></svg>