<svg viewBox="0 0 999.9999999999998 999.9999999999998" fill="none" xmlns="http://www.w3.org/2000/svg" xmlns:xlink="http://www.w3.org/1999/xlink" overflow="visible" width="999.9999999999998px" height="999.9999999999998px"><g id="Master/Stickers/Notes"><g id="Blush/Stickers/Notes"><rect width="1000" height="1000" fill="white"/><path id="Vector" d="M339.142 438.8L881.945 376L907 668.835L314 742L339.142 438.8Z" fill="#F1F2F2"/><path id="Vector_2" d="M513.726 581C498.44 581 487.496 560.835 478.637 544.336C475.511 538.574 472.558 533.162 470.126 529.757C464.393 527.4 436.6 548.875 410.631 575.762C408.72 577.77 405.507 577.857 403.509 575.849C401.512 573.929 401.512 570.699 403.422 568.691C411.5 560.311 453.016 518.758 470.56 519.631C473.774 519.805 476.379 521.202 478.203 523.647C481.156 527.575 484.283 533.336 487.496 539.447C494.966 553.414 505.215 572.445 515.203 570.612C521.89 569.39 535.092 557.605 546.817 547.217C566.881 529.408 584.164 514.044 595.803 520.504C604.141 525.131 608.657 536.392 613 547.304C617.429 558.391 621.946 569.826 629.068 570.437C635.147 570.961 646.959 560.049 657.208 550.446C672.929 535.781 689.257 520.591 703.935 525.13C717.311 529.233 723.911 538.312 729.296 545.645C733.552 551.494 736.158 554.811 739.979 555.335C746.493 555.946 765.688 541.019 779.324 526.528C781.235 524.52 784.448 524.432 786.446 526.353C788.443 528.273 788.53 531.503 786.62 533.511C781.322 539.185 754.05 567.469 738.676 565.374C730.339 564.326 725.648 557.867 721.045 551.669C716.181 544.947 711.057 538.05 700.895 534.82C691.776 532.027 676.403 546.343 663.983 557.954C650.433 570.612 638.708 581.524 628.025 580.564C614.737 579.341 609.004 565.025 603.533 551.058C599.798 541.804 596.063 532.202 590.852 529.321C585.38 526.266 565.404 544.074 553.418 554.724C538.914 567.644 526.407 578.73 516.94 580.476C515.811 580.651 514.768 580.738 513.726 580.738V581Z" fill="#76AEA6"/><g id="Group"><g id="Group_2"><path id="Vector_3" d="M364.169 472.996L178.683 271.041L123.73 327.727L293.355 535.23L395.719 566.606L364.169 472.996Z" fill="#FEFFFF"/><path id="Vector_4" d="M296.295 530.81L387.824 558.893L359.828 475.511L178.675 278.236L130.57 327.901L296.468 530.723L296.295 530.81Z" fill="#FEFFFF"/></g><path id="Vector_5" d="M332.52 548.586C332.52 548.586 374.991 500.481 376.118 503.254C377.244 506.028 407.147 574.502 403.334 575.195C399.52 575.888 332.52 548.586 332.52 548.586V548.586Z" fill="#76AEA6"/><path id="Vector_6" d="M285.013 534.11L360.508 463.816L188.89 273.822L115.648 341.17L285.013 534.11Z" fill="#76AEA6"/><path id="Vector_7" d="M329.376 489.819C327.816 489.906 326.255 489.386 325.215 488.086L177.173 318.808C175.353 316.727 175.526 313.52 177.606 311.7C179.686 309.88 182.893 310.053 184.714 312.133L332.756 481.412C334.576 483.492 334.403 486.699 332.323 488.519C331.456 489.299 330.416 489.646 329.376 489.733V489.819Z" fill="#261D2A"/><path id="Vector_8" d="M304.092 518.593C302.532 518.68 300.972 518.16 299.932 516.86L145.475 338.307C143.655 336.227 143.915 333.02 145.995 331.2C148.075 329.379 151.282 329.639 153.103 331.72L307.559 510.272C309.379 512.353 309.119 515.56 307.039 517.38C306.172 518.073 305.132 518.506 304.179 518.593H304.092Z" fill="#261D2A"/><path id="Vector_9" d="M127.443 370.378C127.443 370.378 219.146 307.192 213.078 301.211C209.785 297.917 177.455 259 177.455 259L93.3789 332.068L127.529 370.378H127.443Z" fill="#BF4B46"/><path id="Vector_10" d="M127.189 324.183C125.456 324.357 123.722 323.577 122.682 322.016C121.122 319.763 121.642 316.643 123.895 314.996L169.054 283.446C171.307 281.885 174.514 282.406 176.074 284.659C177.634 286.913 177.114 290.033 174.861 291.68L129.703 323.23C128.923 323.75 128.056 324.01 127.189 324.097V324.183Z" fill="#261D2A"/></g></g></g></svg>