<svg viewBox="53.91250000000002 74.52295918367346 119.17499999999998 93.86479591836736" fill="none" xmlns="http://www.w3.org/2000/svg" xmlns:xlink="http://www.w3.org/1999/xlink" overflow="visible" width="119.17499999999998px" height="93.86479591836736px"><g id="Master/Stickers/Headphones"><g id="Group 3"><path id="Fill 1" fill-rule="evenodd" clip-rule="evenodd" d="M157.911 125.99C158.207 126.112 158.409 126.275 158.607 126.267C165.016 126.022 168.357 129.955 170.576 135.222C172.229 139.148 172.66 143.237 171.517 147.429C170.971 149.432 170.568 151.473 170.072 153.49C168.277 160.781 160.452 163.011 155.758 162.358C153.693 162.071 152.523 160.898 152.499 158.489C152.433 152.042 152.408 145.585 152.713 139.148C152.998 133.165 154.377 127.284 153.787 121.195C153.01 113.16 151.017 105.468 148.007 98.0471C145.221 91.1845 140.027 86.6231 133.096 84.1399C119.723 79.3501 106.191 79.0245 92.9665 84.2357C84.1187 87.7218 78.3328 94.6254 76.3339 104.038C75.2271 109.245 75.0123 114.648 74.5034 119.974C74.2749 122.365 74.3077 124.779 74.2256 127.183C74.201 127.948 73.9958 128.77 74.2037 129.468C76.4543 137.012 75.4747 144.894 76.6363 152.558C77.0372 155.204 76.5939 158.027 76.23 160.727C75.7101 164.57 73.6154 166.282 69.7422 166.188C67.783 166.14 65.8266 165.828 63.8797 165.56C61.0887 165.177 59.2691 163.51 58.5262 160.878C56.3535 153.19 55.7433 145.369 57.2948 137.503C58.2238 132.787 62.1558 128.301 68.2386 128.484C68.9897 128.508 69.7422 128.488 70.8956 128.488C71.0324 125.9 71.2677 123.434 71.2718 120.969C71.28 115.265 71.5359 109.583 72.811 104.011C75.6663 91.5348 83.187 83.2931 95.4606 79.5539C108.246 75.6588 120.959 76.3976 133.537 80.5554C143.006 83.6844 149.297 90.064 152.555 99.496C155.39 107.702 157.609 116.02 157.676 124.783C157.68 125.203 157.836 125.622 157.911 125.99" fill="#4B458C"/></g></g></svg>