<svg viewBox="73.125 40.39772727272725 303.75 319.815340909091" fill="none" xmlns="http://www.w3.org/2000/svg" xmlns:xlink="http://www.w3.org/1999/xlink" overflow="visible" width="303.75px" height="319.815340909091px"><g id="Master/Stickers/Microphone"><g id="Group 47"><g id="Group 3"><path id="Fill 1" fill-rule="evenodd" clip-rule="evenodd" d="M363.042 346.393V346.393C377.253 333.291 378.153 311.149 365.051 296.938L227.87 148.142C214.768 133.93 202.031 141.547 187.82 154.649C173.608 167.751 163.304 181.377 176.406 195.588L313.587 344.384C326.689 358.596 348.831 359.495 363.042 346.393" fill="#C3C5DB"/></g><g id="Group 6"><path id="Fill 4" fill-rule="evenodd" clip-rule="evenodd" d="M190.331 210.752L241.794 163.306C254.55 151.546 255.357 131.672 243.597 118.916L187.558 58.1317C166.49 35.2797 130.885 33.8327 108.033 54.9017L93.1324 68.6397C70.2794 89.7077 68.8334 125.313 89.9024 148.165L145.941 208.949C157.701 221.705 177.575 222.512 190.331 210.752" fill="#8069FF"/></g><path id="Fill 7" fill-rule="evenodd" clip-rule="evenodd" d="M110.327 103.95C110.327 106.485 108.272 108.539 105.738 108.539C103.203 108.539 101.149 106.485 101.149 103.95C101.149 101.415 103.203 99.3607 105.738 99.3607C108.272 99.3607 110.327 101.415 110.327 103.95" fill="#643FE1"/><path id="Fill 9" fill-rule="evenodd" clip-rule="evenodd" d="M97.1458 111.829C97.1458 114.364 95.0908 116.418 92.5568 116.418C90.0218 116.418 87.9678 114.364 87.9678 111.829C87.9678 109.294 90.0218 107.24 92.5568 107.24C95.0908 107.24 97.1458 109.294 97.1458 111.829" fill="#643FE1"/><path id="Fill 11" fill-rule="evenodd" clip-rule="evenodd" d="M101.204 91.9275C101.204 94.4625 99.1494 96.5165 96.6154 96.5165C94.0804 96.5165 92.0264 94.4625 92.0264 91.9275C92.0264 89.3925 94.0804 87.3385 96.6154 87.3385C99.1494 87.3385 101.204 89.3925 101.204 91.9275" fill="#643FE1"/><path id="Fill 13" fill-rule="evenodd" clip-rule="evenodd" d="M113.02 81.4281C113.02 83.9631 110.965 86.0171 108.431 86.0171C105.896 86.0171 103.842 83.9631 103.842 81.4281C103.842 78.8931 105.896 76.8391 108.431 76.8391C110.965 76.8391 113.02 78.8931 113.02 81.4281" fill="#643FE1"/><path id="Fill 15" fill-rule="evenodd" clip-rule="evenodd" d="M129.812 84.1864C129.812 86.7214 127.757 88.7754 125.223 88.7754C122.688 88.7754 120.634 86.7214 120.634 84.1864C120.634 81.6514 122.688 79.5974 125.223 79.5974C127.757 79.5974 129.812 81.6514 129.812 84.1864" fill="#643FE1"/><path id="Fill 17" fill-rule="evenodd" clip-rule="evenodd" d="M124.675 98.4142C124.675 100.949 122.62 103.003 120.086 103.003C117.551 103.003 115.497 100.949 115.497 98.4142C115.497 95.8792 117.551 93.8252 120.086 93.8252C122.62 93.8252 124.675 95.8792 124.675 98.4142" fill="#643FE1"/><path id="Fill 19" fill-rule="evenodd" clip-rule="evenodd" d="M168.67 76.4449C168.67 78.9799 166.615 81.0339 164.081 81.0339C161.546 81.0339 159.492 78.9799 159.492 76.4449C159.492 73.9099 161.546 71.8559 164.081 71.8559C166.615 71.8559 168.67 73.9099 168.67 76.4449" fill="#643FE1"/><path id="Fill 21" fill-rule="evenodd" clip-rule="evenodd" d="M142.68 95.7661C142.68 98.3011 140.625 100.355 138.091 100.355C135.556 100.355 133.502 98.3011 133.502 95.7661C133.502 93.2311 135.556 91.1771 138.091 91.1771C140.625 91.1771 142.68 93.2311 142.68 95.7661" fill="#643FE1"/><path id="Fill 23" fill-rule="evenodd" clip-rule="evenodd" d="M123.841 115.982C123.841 118.517 121.786 120.571 119.252 120.571C116.717 120.571 114.663 118.517 114.663 115.982C114.663 113.447 116.717 111.393 119.252 111.393C121.786 111.393 123.841 113.447 123.841 115.982" fill="#643FE1"/><path id="Fill 25" fill-rule="evenodd" clip-rule="evenodd" d="M117.842 68.3532C117.842 70.8882 115.787 72.9422 113.253 72.9422C110.718 72.9422 108.664 70.8882 108.664 68.3532C108.664 65.8182 110.718 63.7642 113.253 63.7642C115.787 63.7642 117.842 65.8182 117.842 68.3532" fill="#643FE1"/><path id="Fill 27" fill-rule="evenodd" clip-rule="evenodd" d="M133.02 69.9587C133.02 72.4937 130.965 74.5477 128.431 74.5477C125.896 74.5477 123.842 72.4937 123.842 69.9587C123.842 67.4237 125.896 65.3697 128.431 65.3697C130.965 65.3697 133.02 67.4237 133.02 69.9587" fill="#643FE1"/><path id="Fill 29" fill-rule="evenodd" clip-rule="evenodd" d="M153.784 67.9626C153.784 70.4976 151.729 72.5516 149.195 72.5516C146.66 72.5516 144.606 70.4976 144.606 67.9626C144.606 65.4276 146.66 63.3736 149.195 63.3736C151.729 63.3736 153.784 65.4276 153.784 67.9626" fill="#643FE1"/><path id="Fill 31" fill-rule="evenodd" clip-rule="evenodd" d="M143.359 57.6042C143.359 60.1392 141.304 62.1932 138.77 62.1932C136.235 62.1932 134.181 60.1392 134.181 57.6042C134.181 55.0692 136.235 53.0152 138.77 53.0152C141.304 53.0152 143.359 55.0692 143.359 57.6042" fill="#643FE1"/><path id="Fill 33" fill-rule="evenodd" clip-rule="evenodd" d="M177.849 63.3735C177.849 65.9085 175.794 67.9625 173.26 67.9625C170.725 67.9625 168.671 65.9085 168.671 63.3735C168.671 60.8385 170.725 58.7845 173.26 58.7845C175.794 58.7845 177.849 60.8385 177.849 63.3735" fill="#643FE1"/><path id="Fill 35" fill-rule="evenodd" clip-rule="evenodd" d="M163.235 56.608C163.235 59.143 161.18 61.197 158.646 61.197C156.111 61.197 154.057 59.143 154.057 56.608C154.057 54.073 156.111 52.019 158.646 52.019C161.18 52.019 163.235 54.073 163.235 56.608" fill="#643FE1"/><path id="Fill 37" fill-rule="evenodd" clip-rule="evenodd" d="M146.038 79.7284C146.038 82.2634 143.983 84.3174 141.449 84.3174C138.914 84.3174 136.86 82.2634 136.86 79.7284C136.86 77.1934 138.914 75.1394 141.449 75.1394C143.983 75.1394 146.038 77.1934 146.038 79.7284" fill="#643FE1"/><path id="Fill 39" fill-rule="evenodd" clip-rule="evenodd" d="M100.555 133.018C100.555 135.553 98.5 137.607 95.966 137.607C93.431 137.607 91.377 135.553 91.377 133.018C91.377 130.483 93.431 128.429 95.966 128.429C98.5 128.429 100.555 130.483 100.555 133.018" fill="#643FE1"/><path id="Fill 41" fill-rule="evenodd" clip-rule="evenodd" d="M109.734 120.571C109.734 123.106 107.679 125.16 105.145 125.16C102.61 125.16 100.556 123.106 100.556 120.571C100.556 118.036 102.61 115.982 105.145 115.982C107.679 115.982 109.734 118.036 109.734 120.571" fill="#643FE1"/><path id="Fill 43" fill-rule="evenodd" clip-rule="evenodd" d="M355.874 302.676C355.468 302.676 355.062 302.512 354.767 302.188L242.56 179.322C242.001 178.709 242.044 177.761 242.655 177.202C243.269 176.645 244.216 176.686 244.774 177.298L356.981 300.164C357.54 300.777 357.497 301.725 356.886 302.283C356.598 302.546 356.235 302.676 355.874 302.676" fill="#F5F5F5"/><path id="Fill 45" fill-rule="evenodd" clip-rule="evenodd" d="M103.842 169.179C102.638 169.179 101.437 168.699 100.551 167.749C98.8565 165.932 98.9545 163.084 100.771 161.389L199.089 69.6527C200.907 67.9557 203.754 68.0557 205.449 69.8717C207.145 71.6897 207.046 74.5367 205.23 76.2327L106.911 167.969C106.043 168.779 104.942 169.179 103.842 169.179" fill="#643FE1"/></g></g></svg>