<svg viewBox="73.125 79.67329545454544 309.375 230.0426136363636" fill="none" xmlns="http://www.w3.org/2000/svg" xmlns:xlink="http://www.w3.org/1999/xlink" overflow="visible" width="309.375px" height="230.0426136363636px"><g id="Master/Stickers/Speaker"><g id="Group"><path id="Vector" d="M91.8734 166.113L166.638 153.266C177.055 151.476 186.964 158.479 188.754 168.896L201.601 243.66C203.391 254.078 196.388 263.987 185.971 265.777L111.206 278.624C100.789 280.414 90.8799 273.411 89.0899 262.993L76.243 188.229C74.453 177.812 81.4561 167.903 91.8734 166.113Z" fill="#FFD600"/><path id="Vector_2" d="M169.206 122.148C152.926 135.868 140.086 153.288 132.246 173.078C126.956 186.448 122.566 196.228 126.096 216.758C129.386 235.908 137.026 245.038 146.476 255.878C160.476 271.918 178.396 284.048 198.326 291.548L234.786 305.268L198.996 97.0483L169.206 122.148V122.148Z" fill="#FFD600"/><path id="Vector_3" d="M255.902 307.108C292.142 300.881 313.103 246.845 302.719 186.416C292.336 125.987 254.54 82.0481 218.3 88.2752C182.06 94.5024 161.099 148.538 171.483 208.967C181.866 269.396 219.662 313.335 255.902 307.108Z" fill="#D1DDF0"/><path id="Vector_4" d="M330.687 274.848C331.847 274.928 333.007 274.348 333.607 273.258C347.077 248.888 351.307 214.568 345.207 179.088C340.227 150.118 328.837 123.768 313.147 104.908C312.057 103.598 310.107 103.418 308.797 104.508C307.487 105.598 307.307 107.548 308.397 108.858C323.407 126.898 334.317 152.218 339.117 180.138C344.897 213.758 340.817 247.448 328.197 270.278C327.377 271.768 327.917 273.648 329.407 274.478C329.817 274.698 330.247 274.828 330.677 274.858L330.687 274.848Z" fill="#D1DDF0"/><path id="Vector_5" d="M357.227 291.018C358.387 291.098 359.547 290.518 360.147 289.428C376.847 259.208 382.087 216.618 374.517 172.568C368.337 136.588 354.207 103.878 334.727 80.4783C333.637 79.1683 331.687 78.9883 330.377 80.0783C329.067 81.1683 328.887 83.1183 329.977 84.4283C348.767 107.018 362.427 138.688 368.427 173.618C375.657 215.678 370.537 257.858 354.737 286.448C353.917 287.938 354.457 289.818 355.947 290.648C356.357 290.868 356.787 290.998 357.217 291.028L357.227 291.018Z" fill="#D1DDF0"/><path id="Vector_6" d="M186.397 206.738C179.507 166.628 194.117 130.518 218.987 126.248C231.387 124.118 244.247 129.948 255.207 142.688C265.707 154.898 273.297 172.138 276.587 191.248C283.477 231.358 268.867 267.468 243.997 271.748C241.677 272.148 239.357 272.258 237.037 272.088C214.487 270.488 192.657 243.118 186.407 206.748L186.397 206.738ZM220.237 133.538C199.397 137.118 187.487 169.388 193.697 205.478C199.897 241.568 221.897 268.008 242.737 264.428C263.577 260.848 275.487 228.568 269.277 192.488C266.217 174.688 259.227 158.708 249.587 147.508C242.067 138.768 233.717 133.858 225.597 133.278C223.797 133.148 222.007 133.238 220.237 133.538V133.538ZM190.027 206.108H190.037H190.027Z" fill="white"/><path id="Vector_7" d="M209.937 202.688C206.647 183.518 213.627 166.258 225.507 164.218C231.437 163.198 237.577 165.988 242.817 172.068C247.837 177.898 251.467 186.148 253.037 195.278C256.337 214.448 249.347 231.708 237.467 233.748C236.357 233.938 235.247 233.988 234.137 233.908C223.357 233.138 212.927 220.068 209.937 202.678V202.688ZM226.107 167.708C216.147 169.418 210.457 184.848 213.417 202.088C216.377 219.338 226.897 231.978 236.857 230.268C246.817 228.558 252.507 213.128 249.547 195.888C248.087 187.378 244.747 179.748 240.137 174.388C236.547 170.208 232.557 167.868 228.667 167.588C227.807 167.528 226.947 167.568 226.107 167.718V167.708Z" fill="white"/></g></g></svg>